<?xml version="1.0" encoding="utf-8"?>
<!-- Generator: Adobe Illustrator 23.0.0, SVG Export Plug-In . SVG Version: 6.00 Build 0)  -->
<svg version="1.1" id="Layer_1" xmlns="http://www.w3.org/2000/svg" xmlns:xlink="http://www.w3.org/1999/xlink" x="0px" y="0px"
	 viewBox="0 0 64 64" style="enable-background:new 0 0 64 64;" xml:space="preserve">
<style type="text/css">
	.st0{fill:url(#SVGID_1_);}
	.st1{fill:url(#SVGID_2_);}
	.st2{fill:url(#SVGID_3_);}
	.st3{fill:url(#SVGID_4_);}
	.st4{fill:url(#SVGID_5_);}
</style>
<g id="bank-financial-business-finance">
	<linearGradient id="SVGID_1_" gradientUnits="userSpaceOnUse" x1="2" y1="59" x2="62" y2="59">
		<stop  offset="0" style="stop-color:#111A31"/>
		<stop  offset="1" style="stop-color:#002C50"/>
	</linearGradient>
	<path class="st0" d="M2,62h60v-6H2V62z M4,58h56v2H4V58z"/>
	<linearGradient id="SVGID_2_" gradientUnits="userSpaceOnUse" x1="3" y1="36.5" x2="21" y2="36.5">
		<stop  offset="0" style="stop-color:#111A31"/>
		<stop  offset="1" style="stop-color:#002C50"/>
	</linearGradient>
	<path class="st1" d="M3,49v6h18v-6h-3V24h3v-6H3v6h3v25H3z M19,51v2H5v-2H19z M5,22v-2h14v2H5z M8,24h8v25H8V24z"/>
	<linearGradient id="SVGID_3_" gradientUnits="userSpaceOnUse" x1="23" y1="36.5" x2="41" y2="36.5">
		<stop  offset="0" style="stop-color:#111A31"/>
		<stop  offset="1" style="stop-color:#002C50"/>
	</linearGradient>
	<path class="st2" d="M23,49v6h18v-6h-3V24h3v-6H23v6h3v25H23z M39,51v2H25v-2H39z M25,22v-2h14v2H25z M28,24h8v25h-8V24z"/>
	<linearGradient id="SVGID_4_" gradientUnits="userSpaceOnUse" x1="43" y1="36.5" x2="61" y2="36.5">
		<stop  offset="0" style="stop-color:#111A31"/>
		<stop  offset="1" style="stop-color:#002C50"/>
	</linearGradient>
	<path class="st3" d="M43,49v6h18v-6h-3V24h3v-6H43v6h3v25H43z M59,51v2H45v-2H59z M45,22v-2h14v2H45z M48,24h8v25h-8V24z"/>
	<linearGradient id="SVGID_5_" gradientUnits="userSpaceOnUse" x1="2" y1="9.466" x2="62" y2="9.466">
		<stop  offset="0" style="stop-color:#111A31"/>
		<stop  offset="1" style="stop-color:#002C50"/>
	</linearGradient>
	<path class="st4" d="M56.2,11L32,1.9L7.8,11H2v6h60v-6H56.2z M60,15H4v-2h4.2L32,4.1L55.8,13H60V15z"/>
</g>
</svg>
