<?xml version="1.0" encoding="utf-8"?>
<!-- Generator: Adobe Illustrator 23.0.0, SVG Export Plug-In . SVG Version: 6.00 Build 0)  -->
<svg version="1.1" id="Layer_1" xmlns="http://www.w3.org/2000/svg" xmlns:xlink="http://www.w3.org/1999/xlink" x="0px" y="0px"
	 viewBox="0 0 64 64" style="enable-background:new 0 0 64 64;" xml:space="preserve">
<style type="text/css">
	.st0{fill:url(#SVGID_1_);}
	.st1{fill:url(#SVGID_2_);}
	.st2{fill:#002C50;}
</style>
<g id="reward-financial-business-finance">
	
		<linearGradient id="SVGID_1_" gradientUnits="userSpaceOnUse" x1="10" y1="32.0414" x2="54" y2="32.0414" gradientTransform="matrix(1 -1.272761e-03 1.272761e-03 1 -4.075513e-02 4.070248e-02)">
		<stop  offset="0" style="stop-color:#111A31"/>
		<stop  offset="1" style="stop-color:#002C50"/>
	</linearGradient>
	<path class="st0" d="M54,24c0-12.2-9.9-22-22-22c-12.2,0-22,9.9-22,22c0,7.8,4.2,15,10.9,19l-8.1,14.1l6.8-1.8l1.8,6.8l9.3-16.2
		c0.4,0,0.8,0.1,1.3,0.1c0.4,0,0.9,0,1.3-0.1l9.4,16.1l1.8-6.8l6.8,1.8l-8.2-14.1C49.9,39,54,31.8,54,24z M22.1,56.9L21,52.8
		l-4.1,1.1l5.8-10c0.6,0.3,1.2,0.5,1.8,0.7l-2.3,3.8l1.7,1l2.6-4.2c0.7,0.2,1.4,0.3,2.1,0.4L22.1,56.9z M30.3,43.9L30.3,43.9
		c-2.7-0.2-5.2-1-7.5-2.2l0,0c-9.8-5.1-13.6-17.2-8.5-27s17.2-13.6,27-8.5s13.6,17.2,8.5,27c-1.9,3.6-4.8,6.5-8.4,8.4
		c-2.3,1.2-4.9,2-7.5,2.2C32.6,44,31.5,44,30.3,43.9L30.3,43.9z M43.1,52.8L42,56.9l-6.5-11.2c0.7-0.1,1.4-0.3,2-0.4l2.6,4.2
		l1.7-1.1l-2.4-3.8c0.6-0.2,1.3-0.5,1.9-0.8l5.8,10L43.1,52.8z"/>
	
		<linearGradient id="SVGID_2_" gradientUnits="userSpaceOnUse" x1="15" y1="24" x2="49" y2="24" gradientTransform="matrix(1 -1.272761e-03 1.272761e-03 1 -4.075513e-02 4.070248e-02)">
		<stop  offset="0" style="stop-color:#111A31"/>
		<stop  offset="1" style="stop-color:#002C50"/>
	</linearGradient>
	<path class="st1" d="M49,24c0-9.4-7.6-17-17-17c-9.4,0-17,7.6-17,17c0,9.4,7.6,17,17,17C41.4,41,49,33.4,49,24z M32,39
		c-8.3,0-15-6.7-15-15S23.7,9,32,9c8.3,0,15,6.7,15,15C47,32.3,40.3,39,32,39z"/>
	<path class="st2" d="M35,14l-5.4,0L26,17.6l0,3.4l3,0l0,10l-3,0l0,2l12,0l0-2l-3,0L35,14z M31,31l0-12l-3,0l0-0.6l2.4-2.4l2.6,0
		l0,15L31,31z"/>
	
		<rect x="22" y="23" transform="matrix(1 -1.272761e-03 1.272761e-03 1 -3.054224e-02 2.927994e-02)" class="st2" width="2" height="2"/>
	
		<rect x="40" y="23" transform="matrix(1 -1.272761e-03 1.272761e-03 1 -3.049850e-02 5.218961e-02)" class="st2" width="2" height="2"/>
</g>
</svg>
